<svg id="Layer_1" data-name="Layer 1" xmlns="http://www.w3.org/2000/svg" viewBox="0 0 142.7102 119.08739">
  <title>logo-variant-2-bw</title>
  <g>
    <path d="M126.5,51.4a15.99768,15.99768,0,0,0-7.5,2.2L56.7514,89.03925,71.6,64.6a.84537.84537,0,0,1,.2-.6,4.262,4.262,0,0,0,.473-2.0376L76.2,64.4c.1.1.2.1.3.2A4.3435,4.3435,0,0,0,82.3,63a4.176,4.176,0,0,0-1-5.4L18.7,3.1A11.2967,11.2967,0,0,0,11.4,0,10.99729,10.99729,0,0,0,0,10.7a11.123,11.123,0,0,0,5.8,10L66.2511,58.22437A4.20215,4.20215,0,0,0,64.6,59.6L28.73822,105.12805a7.9082,7.9082,0,0,0,1.932,13.20581c.04529.0213.0918.039.13739.05939.1192.05023.23718.10229.35931.14667a7.96959,7.96959,0,0,0,7.21045-.73279L133,81.3a.30972.30972,0,0,0,.2-.1,15.6466,15.6466,0,0,0,9.5-14.9A15.48545,15.48545,0,0,0,126.5,51.4Z" transform="translate(0.00301 0.00603)" fill="#cdcdcd"/>
    <g>
      <rect x="45.50301" y="35.70603" width="51" height="51"/>
      <rect x="49.90301" y="77.10603" width="19.1" height="3.2" fill="#fff"/>
      <g>
        <path d="M49.7,49.1l1.5-1.4a1.70271,1.70271,0,0,0,1.3.8q.9,0,.9-1.2V42h2.3v5.3a2.79543,2.79543,0,0,1-3.1,3.1A3.12825,3.12825,0,0,1,49.7,49.1Z" transform="translate(0.00301 0.00603)" fill="#fff"/>
        <path d="M56.3,42H63v2H58.6v1.3h4v1.8h-4v1.3H63v2H56.3Z" transform="translate(0.00301 0.00603)" fill="#fff"/>
        <path d="M66,44.1H63.5v-2h7.3v2H68.3v6.3H66Z" transform="translate(0.00301 0.00603)" fill="#fff"/>
        <path d="M49.9,52.3h4.3a3.7023,3.7023,0,0,1,2.3.7,1.97822,1.97822,0,0,1,.5,1.4h0a1.95538,1.95538,0,0,1-1.3,1.9,2.034,2.034,0,0,1,1.7,2h0c0,1.4-1.2,2.3-3.1,2.3H50V52.3Zm4.8,2.6c0-.5-.4-.7-1-.7H52.2v1.5h1.4c.7-.1,1.1-.3,1.1-.8Zm-.8,2.3H52.1v1.5h1.8c.7,0,1.1-.3,1.1-.8h0C55,57.5,54.7,57.2,53.9,57.2Z" transform="translate(0.00301 0.00603)" fill="#fff"/>
        <path d="M57.7,52.3h3.9a3.37094,3.37094,0,0,1,2.7.9,2.48948,2.48948,0,0,1,.7,1.9h0a2.76053,2.76053,0,0,1-1.7,2.6l2,2.9H62.7L61,58.1H60v2.5H57.7Zm3.8,4c.8,0,1.2-.4,1.2-1h0c0-.7-.5-1-1.2-1H60v2Z" transform="translate(0.00301 0.00603)" fill="#fff"/>
        <path d="M67.8,52.2H70l3.5,8.4H71l-.6-1.5H67.2l-.6,1.5H64.2Zm2,5.1L68.9,55,68,57.4h1.8Z" transform="translate(0.00301 0.00603)" fill="#fff"/>
        <path d="M73.8,52.3h2.3v8.3H73.8Z" transform="translate(0.00301 0.00603)" fill="#fff"/>
        <path d="M76.7,52.3h2.2l3.4,4.4V52.3h2.3v8.3h-2L79,56.1v4.6H76.7Z" transform="translate(0.00301 0.00603)" fill="#fff"/>
        <path d="M84.7,59.4,86,57.9a3.94219,3.94219,0,0,0,2.7,1c.6,0,1-.2,1-.6h0c0-.4-.3-.5-1.4-.8-1.8-.4-3.1-.9-3.1-2.6h0c0-1.5,1.2-2.7,3.2-2.7a5.33072,5.33072,0,0,1,3.4,1.1l-1.2,1.6a4.55346,4.55346,0,0,0-2.3-.8c-.6,0-.8.2-.8.5h0c0,.4.3.5,1.4.8,1.9.4,3.1,1,3.1,2.6h0c0,1.7-1.3,2.7-3.4,2.7A5.29339,5.29339,0,0,1,84.7,59.4Z" transform="translate(0.00301 0.00603)" fill="#fff"/>
      </g>
    </g>
  </g>
</svg>
