<svg id="Layer_1" data-name="Layer 1" xmlns="http://www.w3.org/2000/svg" viewBox="0 0 118.03199 135.70408">
  <title>logo-variant-3-bw</title>
  <g>
    <path d="M116,12.3a7.50853,7.50853,0,0,0,2-5.2,7.21446,7.21446,0,0,0-3.49457-5.98322c-.064-.03992-.13257-.07281-.19788-.11078-.10571-.05939-.20844-.12335-.31726-.17743A7.39086,7.39086,0,0,0,110.4,0a6.49552,6.49552,0,0,0-3.1.8l-85.5,42A6.65387,6.65387,0,0,0,18.2,49a6.40531,6.40531,0,0,0,1.3,3.4l20.2464,25.1012L38.491,78.9351C33.73547,76.52623,28.935,74.12444,24.2,71.8c-5.4-2.7-17.8-9-17.8-9a4.78065,4.78065,0,0,0-2.9-.3A4.51484,4.51484,0,0,0,.1,68,5.05487,5.05487,0,0,0,2,70.8a.09793.09793,0,0,1,.1.1h.1a25.3499,25.3499,0,0,1,2.1,1.5Q6.25,73.75,8.2,75.1c2.5,1.8,5,3.5,7.5,5.3l13.293,9.3833L2.8,119.7A9.12893,9.12893,0,0,0,0,126.4a9.38894,9.38894,0,0,0,9.5,9.3,9.01292,9.01292,0,0,0,7.1-3.4L43.39124,99.95641c.86957.61371,1.7392,1.23486,2.60876,1.84357,5.1,3.6,10.1,7.2,15.2,10.8s10.1,7.3,15.2,10.8c.6.4,1.2.9,1.9,1.3a.79929.79929,0,0,0,.25031.1532,11.59931,11.59931,0,0,0,1.993,1.0791c.18518.08435.37073.16772.561.24292l.01117.00409A11.59947,11.59947,0,0,0,97,115.3a1.07834,1.07834,0,0,1-.2-.7,10.01585,10.01585,0,0,0-4.279-8.45282L62.3161,77.10948ZM34.2879,50.16429,83.3363,27.71452,50.24756,65.50725Z" transform="translate(0.03199 0.00234)" fill="#cdcdcd"/>
    <g>
      <rect x="25.93199" y="50.60234" width="51" height="51"/>
      <rect x="30.33199" y="92.10234" width="19.1" height="3.2" fill="#fff"/>
      <g>
        <path d="M30.1,64.1l1.5-1.4a1.70271,1.70271,0,0,0,1.3.8q.9,0,.9-1.2V57h2.3v5.3A2.79543,2.79543,0,0,1,33,65.4,3.12827,3.12827,0,0,1,30.1,64.1Z" transform="translate(0.03199 0.00234)" fill="#fff"/>
        <path d="M36.7,57h6.7v2H39v1.3h4v1.8H39v1.3h4.5v2H36.8V57Z" transform="translate(0.03199 0.00234)" fill="#fff"/>
        <path d="M46.4,59H43.9V57h7.3v2H48.7v6.3H46.4Z" transform="translate(0.03199 0.00234)" fill="#fff"/>
        <path d="M30.3,67.3h4.3a3.70235,3.70235,0,0,1,2.3.7,1.97824,1.97824,0,0,1,.5,1.4h0a1.95538,1.95538,0,0,1-1.3,1.9,2.034,2.034,0,0,1,1.7,2h0c0,1.4-1.2,2.3-3.1,2.3H30.4V67.3Zm4.8,2.5c0-.5-.4-.7-1-.7H32.6v1.5H34c.7,0,1.1-.2,1.1-.8Zm-.8,2.4H32.5v1.5h1.8c.7,0,1.1-.3,1.1-.8h0C35.5,72.5,35.1,72.2,34.3,72.2Z" transform="translate(0.03199 0.00234)" fill="#fff"/>
        <path d="M38.1,67.3H42a3.371,3.371,0,0,1,2.7.9,2.48948,2.48948,0,0,1,.7,1.9h0a2.76053,2.76053,0,0,1-1.7,2.6l2,2.9H43.1l-1.7-2.5h-1v2.5H38.1Zm3.8,4c.8,0,1.2-.4,1.2-1h0c0-.7-.5-1-1.2-1H40.4v2Z" transform="translate(0.03199 0.00234)" fill="#fff"/>
        <path d="M48.2,67.2h2.2l3.5,8.4H51.4l-.6-1.5H47.6L47,75.6H44.6Zm2,5.1L49.3,70l-.9,2.4h1.8Z" transform="translate(0.03199 0.00234)" fill="#fff"/>
        <path d="M54.2,67.3h2.3v8.3H54.2Z" transform="translate(0.03199 0.00234)" fill="#fff"/>
        <path d="M57.1,67.3h2.2l3.4,4.4V67.3H65v8.3H63L59.4,71v4.6H57.1Z" transform="translate(0.03199 0.00234)" fill="#fff"/>
        <path d="M65.1,74.4l1.3-1.5a3.94221,3.94221,0,0,0,2.7,1c.6,0,1-.2,1-.6h0c0-.4-.3-.5-1.4-.8-1.8-.4-3.1-.9-3.1-2.6h0c0-1.5,1.2-2.7,3.2-2.7a5.33072,5.33072,0,0,1,3.4,1.1L71,69.9a4.55347,4.55347,0,0,0-2.3-.8c-.6,0-.8.2-.8.5h0c0,.4.3.5,1.4.8,1.9.4,3.1,1,3.1,2.6h0c0,1.7-1.3,2.7-3.4,2.7A5.75042,5.75042,0,0,1,65.1,74.4Z" transform="translate(0.03199 0.00234)" fill="#fff"/>
      </g>
    </g>
  </g>
</svg>
