<svg id="Layer_1" data-name="Layer 1" xmlns="http://www.w3.org/2000/svg" viewBox="0 0 118.03588 135.70301">
  <title>logo-variant-3-bw-transparent-for_dark_background_only</title>
  <g>
    <path d="M116.03525,12.30233a7.50853,7.50853,0,0,0,2-5.2,7.21446,7.21446,0,0,0-3.49457-5.98322c-.064-.03992-.13257-.07281-.19788-.11078-.10571-.05939-.20844-.12335-.31726-.17743a7.39086,7.39086,0,0,0-3.59029-.82857,6.49552,6.49552,0,0,0-3.1.8l-85.5,42a6.65387,6.65387,0,0,0-3.6,6.2,6.4053,6.4053,0,0,0,1.3,3.4l20.2464,25.1012-1.2554,1.43391c-4.75553-2.40888-9.556-4.81068-14.291-7.13512-5.4-2.7-17.8-9-17.8-9a4.78062,4.78062,0,0,0-2.9-.3A4.51484,4.51484,0,0,0,.10874,67.89q.01254.05635.02651.11237a5.05488,5.05488,0,0,0,1.9,2.8.09793.09793,0,0,1,.1.09582v.00418h.1a25.349,25.349,0,0,1,2.1,1.5q1.95,1.34995,3.9,2.7c2.5,1.8,5,3.5,7.5,5.3l13.293,9.3833-26.193,29.91671a9.12893,9.12893,0,0,0-2.8,6.7,9.38894,9.38894,0,0,0,9.4768,9.30025l.0232-.00024a9.013,9.013,0,0,0,7.1-3.4L43.42651,99.95878c.86957.61371,1.7392,1.23486,2.60876,1.84357,5.1,3.6,10.1,7.2,15.2,10.8s10.1,7.3,15.2,10.8c.6.4,1.2.9,1.9,1.3a.79952.79952,0,0,0,.25031.1532,11.5996,11.5996,0,0,0,1.993,1.0791c.18518.08435.37073.16772.561.24292l.01117.00409a11.59947,11.59947,0,0,0,15.8845-10.87933,1.07833,1.07833,0,0,1-.2-.7,10.01585,10.01585,0,0,0-4.279-8.45282L62.35135,77.11182ZM34.32315,50.16662l49.0484-22.44977L50.28281,65.50958Z" fill="#fff"/>
    <g>
      <rect x="25.93525" y="50.60233" width="51" height="51"/>
      <rect x="30.33525" y="92.10233" width="19.1" height="3.2" fill="#fff"/>
      <g>
        <path d="M30.13525,64.10233l1.5-1.4a1.7027,1.7027,0,0,0,1.3.8q.9,0,.9-1.2v-5.3h2.3v5.3a2.79543,2.79543,0,0,1-3.1,3.1A3.12827,3.12827,0,0,1,30.13525,64.10233Z" fill="#fff"/>
        <path d="M36.73525,57.00233h6.7v2h-4.4v1.3h4v1.8h-4v1.3h4.5v2h-6.7v-8.4Z" fill="#fff"/>
        <path d="M46.43525,59.00233h-2.5v-2h7.3v2h-2.5v6.3h-2.3Z" fill="#fff"/>
        <path d="M30.33525,67.30233h4.3a3.70236,3.70236,0,0,1,2.3.7,1.97823,1.97823,0,0,1,.5,1.4h0a1.95538,1.95538,0,0,1-1.3,1.9,2.034,2.034,0,0,1,1.7,2h0c0,1.4-1.2,2.3-3.1,2.3h-4.3v-8.3Zm4.8,2.5c0-.5-.4-.7-1-.7h-1.5v1.5h1.4C34.73525,70.60233,35.13525,70.40234,35.13525,69.80233Zm-.8,2.4h-1.8v1.5h1.8c.7,0,1.1-.3,1.1-.8h0C35.53525,72.50233,35.13525,72.20233,34.33525,72.20233Z" fill="#fff"/>
        <path d="M38.13525,67.30233h3.9a3.371,3.371,0,0,1,2.7.9,2.48948,2.48948,0,0,1,.7,1.9h0a2.76053,2.76053,0,0,1-1.7,2.6l2,2.9h-2.6l-1.7-2.5h-1v2.5h-2.3Zm3.8,4c.8,0,1.2-.4,1.2-1h0c0-.7-.5-1-1.2-1h-1.5v2Z" fill="#fff"/>
        <path d="M48.23525,67.20233h2.2l3.5,8.4h-2.5l-.6-1.5h-3.2l-.6,1.5h-2.4Zm2,5.1-.9-2.3-.9,2.4h1.8Z" fill="#fff"/>
        <path d="M54.23525,67.30233h2.3v8.3h-2.3Z" fill="#fff"/>
        <path d="M57.13525,67.30233h2.2l3.4,4.4v-4.4h2.3v8.3h-2l-3.6-4.6v4.6h-2.3Z" fill="#fff"/>
        <path d="M65.13525,74.40234l1.3-1.5a3.94222,3.94222,0,0,0,2.7,1c.6,0,1-.2,1-.6h0c0-.4-.3-.5-1.4-.8-1.8-.4-3.1-.9-3.1-2.6h0c0-1.5,1.2-2.7,3.2-2.7a5.33073,5.33073,0,0,1,3.4,1.1l-1.2,1.6a4.55349,4.55349,0,0,0-2.3-.8c-.6,0-.8.2-.8.5h0c0,.4.3.5,1.4.8,1.9.4,3.1,1,3.1,2.6h0c0,1.7-1.3,2.7-3.4,2.7A5.75043,5.75043,0,0,1,65.13525,74.40234Z" fill="#fff"/>
      </g>
    </g>
  </g>
</svg>
