<svg id="Layer_1" data-name="Layer 1" xmlns="http://www.w3.org/2000/svg" viewBox="0 0 142.71072 119.08912">
  <title>logo-variant-2-bw-transparent-for_dark_background_only</title>
  <g>
    <path d="M126.50243,51.40766a15.99767,15.99767,0,0,0-7.5,2.2L56.75385,89.04691,71.60243,64.60766a.84539.84539,0,0,1,.2-.6,4.262,4.262,0,0,0,.473-2.0376l3.927,2.4376c.1.1.2.1.3.2a4.3435,4.3435,0,0,0,5.8-1.6,4.176,4.176,0,0,0-1-5.4l-62.6-54.5a11.2967,11.2967,0,0,0-7.3-3.1A10.99729,10.99729,0,0,0,.00613,10.5909q-.00216.05837-.0037.11676a11.123,11.123,0,0,0,5.8,10L66.25353,58.232a4.20217,4.20217,0,0,0-1.6511,1.37563L28.74065,105.13571a7.9082,7.9082,0,0,0,1.932,13.20581c.04529.0213.0918.039.13739.05939.1192.05023.23718.10229.35931.14667a7.9696,7.9696,0,0,0,7.21045-.73279l94.62262-36.50713a.30971.30971,0,0,0,.2-.1,15.6466,15.6466,0,0,0,9.5-14.9A15.48544,15.48544,0,0,0,126.659,51.40112Q126.58067,51.404,126.50243,51.40766Z" fill="#fff"/>
    <g>
      <rect x="45.50243" y="35.70766" width="51" height="51"/>
      <rect x="49.90243" y="77.10766" width="19.1" height="3.2" fill="#fff"/>
      <g>
        <path d="M49.70243,49.10766l1.5-1.4a1.70272,1.70272,0,0,0,1.3.8q.9,0,.9-1.2v-5.3h2.3v5.3a2.79543,2.79543,0,0,1-3.1,3.1A3.12825,3.12825,0,0,1,49.70243,49.10766Z" fill="#fff"/>
        <path d="M56.30243,42.00766h6.7v2h-4.4v1.3h4v1.8h-4v1.3h4.4v2h-6.7Z" fill="#fff"/>
        <path d="M66.00243,44.10766h-2.5v-2h7.3v2h-2.5v6.3h-2.3Z" fill="#fff"/>
        <path d="M49.90243,52.30766h4.3a3.70232,3.70232,0,0,1,2.3.7,1.9782,1.9782,0,0,1,.5,1.4h0a1.95538,1.95538,0,0,1-1.3,1.9,2.034,2.034,0,0,1,1.7,2h0c0,1.4-1.2,2.3-3.1,2.3h-4.3v-8.3Zm4.8,2.6c0-.5-.4-.7-1-.7h-1.5v1.5h1.4C54.30243,55.60767,54.70243,55.40766,54.70243,54.90766Zm-.8,2.3h-1.8v1.5h1.8c.7,0,1.1-.3,1.1-.8h0C55.00243,57.50766,54.70243,57.20766,53.90243,57.20767Z" fill="#fff"/>
        <path d="M57.70243,52.30766h3.9a3.371,3.371,0,0,1,2.7.9,2.48949,2.48949,0,0,1,.7,1.9h0a2.76053,2.76053,0,0,1-1.7,2.6l2,2.9h-2.6l-1.7-2.5h-1v2.5h-2.3Zm3.8,4c.8,0,1.2-.4,1.2-1h0c0-.7-.5-1-1.2-1h-1.5v2Z" fill="#fff"/>
        <path d="M67.80243,52.20766h2.2l3.5,8.4h-2.5l-.6-1.5h-3.2l-.6,1.5h-2.4Zm2,5.1-.9-2.3-.9,2.4h1.8Z" fill="#fff"/>
        <path d="M73.80243,52.30766h2.3v8.3h-2.3Z" fill="#fff"/>
        <path d="M76.70243,52.30766h2.2l3.4,4.4v-4.4h2.3v8.3h-2l-3.6-4.5v4.6h-2.3Z" fill="#fff"/>
        <path d="M84.70243,59.40766l1.3-1.5a3.94222,3.94222,0,0,0,2.7,1c.6,0,1-.2,1-.6h0c0-.4-.3-.5-1.4-.8-1.8-.4-3.1-.9-3.1-2.6h0c0-1.5,1.2-2.7,3.2-2.7a5.33071,5.33071,0,0,1,3.4,1.1l-1.2,1.6a4.55349,4.55349,0,0,0-2.3-.8c-.6,0-.8.2-.8.5h0c0,.4.3.5,1.4.8,1.9.4,3.1,1,3.1,2.6h0c0,1.7-1.3,2.7-3.4,2.7A5.29339,5.29339,0,0,1,84.70243,59.40766Z" fill="#fff"/>
      </g>
    </g>
  </g>
</svg>
