<svg id="Layer_1" data-name="Layer 1" xmlns="http://www.w3.org/2000/svg" viewBox="0 0 260.53405 144.35085">
  <title>logo-variant-4-bw-transparent-for_dark_background_only</title>
  <g>
    <path d="M257.9569,16.2577a9.692,9.692,0,0,0,.67084-.81641c.05377-.07245.10565-.14563.15735-.21948a9.69963,9.69963,0,0,0,.54083-.8562c.00879-.01581.01923-.03064.02789-.04651a9.67856,9.67856,0,0,0,.44934-.95624c.03406-.08264.06671-.16528.09851-.2489a9.60529,9.60529,0,0,0,.33093-1.01624l.002-.0094a9.67452,9.67452,0,0,0,.20087-1.04694c.01294-.09106.0246-.18182.03491-.2735A9.668,9.668,0,0,0,250.86077,0l-.00323.00024q-.273.00018-.54205.01556-.25.01428-.4975.041l-.20953.02979c-.05536.0072-.11023.01532-.16541.0235L76.15344,24.73481c-.0592.0108-.11487.0293-.17371.04077-.14777.02881-.29413.0697-.44141.10358-.30829.07074-.61591.142-.91455.2323-.08276.02515-.16406.058-.24652.08484-.36615.11841-.72717.2453-1.07739.392-.0296.01245-.05847.02783-.088.04053q-.60242.25735-1.17175.56592l-.02295.01111c-.04639.02533-.08856.05554-.13452.08136a13.64967,13.64967,0,0,0-2.28741,1.619c-.172.1496-.34723.2962-.51068.45337-.11279.10889-.21667.22546-.32556.338-.18848.19415-.37531.38928-.55109.59326-.09442.1098-.18231.22418-.27319.33685-.17615.218-.34772.4386-.50964.6662-.08173.11511-.15955.23242-.23773.34991q-.23547.35339-.44849.71918c-.0697.12006-.13806.24048-.20416.36267-.13788.255-.26556.51434-.387.77728-.05463.11816-.111.235-.16229.35474-.126.29443-.23828.59393-.34344.89648-.032.09229-.069.18231-.09906.27539a13.74175,13.74175,0,0,0-.56226,2.52887c-.00391.03168-.00519.06384-.00891.09558-.04773.40436-.076.81165-.08759,1.22125-.00146.05432-.00049.109-.00128.16339q-.00981.6037.03473,1.21118.00458.06235.00983.12469.05391.65891.17175,1.31781l.002.01532.00189.00812a13.12651,13.12651,0,0,0,1.40845,4.04944s8.80585,16.81409,18.67643,35.65791L8.90374,38.284A6.064,6.064,0,0,0,2.39635,48.471L73.54906,103.6435,20.04955,135.3907a4.69741,4.69741,0,0,0,3.95185,8.52324l.0056-.00261q.08844-.04111.17511-.08582.09-.04669.17841-.097L83.68,111.49911l33.11267,25.6759c.08813.06671.182.11957.271.18433.31128.22626.62689.44305.95074.64685.18335.11584.36816.226.55438.33417.29016.16772.58319.32727.88159.47742q.35.17706.70477.33649.387.17331.78064.32654c.27759.10883.55591.21112.837.30481.23773.079.47668.15088.71747.21954.3006.08575.60132.16547.90472.2345.24139.05505.48364.10193.72717.14661.29694.0542.59344.10388.89191.14233.2677.03491.53589.05994.80518.08234.27112.02209.5415.04156.81293.051.30377.011.60736.01025.91193.00525.23755-.00433.47437-.00983.71136-.02386.332-.0191.66266-.05115.99408-.08954.21417-.025.42749-.05115.64063-.08411.33789-.05206.67365-.1167,1.00952-.18921.21393-.04614.4267-.09442.63886-.14862.31622-.081.6297-.17242.94281-.272q.3588-.11362.71234-.24219.40814-.14969.81049-.321c.27881-.118.55347-.24426.8266-.37714.22028-.10779.4389-.21869.65613-.33661.30963-.16742.61273-.34662.913-.53375.10791-.06732.2204-.12134.32733-.19135.11554-.07562.2243-.15881.33765-.23688.14136-.09747.28271-.19379.42163-.29572.37549-.27545.73956-.56268,1.08875-.86481.09369-.08118.18323-.168.27539-.2514q.47269-.42718.91028-.88538c.0722-.07574.14642-.14832.21747-.22559.349-.37885.67792-.77332.99042-1.17987.02722-.0354.05829-.066.08533-.10168.044-.05817.08087-.12054.12408-.1792q.30139-.409.57764-.83429c.06256-.09625.12732-.19092.18793-.28827.2312-.37146.45087-.74969.6532-1.13739.02631-.05042.04864-.1026.07446-.15326q.25946-.50931.48413-1.03546c.05157-.12024.1-.24133.1488-.36273q.18365-.45648.34094-.92358c.03772-.11176.07794-.22229.11334-.33478.13129-.41656.25024-.83746.35-1.26447.00977-.04175.01617-.08429.02557-.1261.08667-.38422.15869-.77222.21924-1.16333.02008-.12946.03632-.25928.05341-.38928q.06326-.48065.0993-.96667c.00964-.12885.02124-.2572.028-.38647.023-.43951.03467-.8808.02393-1.325-.00909-.38684-.03394-.77118-.06848-1.15356-.0127-.14087-.032-.28046-.04816-.42078-.02808-.24371-.05872-.48663-.097-.728-.02509-.15845-.05377-.31573-.08325-.47327q-.06354-.33939-.14044-.67474c-.03552-.15515-.07086-.31006-.1106-.46405-.06213-.24091-.13208-.47906-.20441-.71649-.03949-.12958-.075-.26013-.11749-.38873q-.1767-.53458-.38617-1.056c-.03259-.08063-.07068-.15906-.10455-.2392-.11768-.27881-.24072-.55505-.37268-.82709-.05353-.11023-.111-.21851-.16693-.32764q-.19006-.37133-.397-.7334c-.05652-.09814-.1134-.19592-.17187-.29309q-.24985-.41619-.52325-.81763c-.025-.03662-.0462-.07532-.07147-.11176l-15.525-24.99824,128.91859-70.044c.02264-.01038.043-.02509.06555-.03564a9.63512,9.63512,0,0,0,1.03082-.56012c.01752-.011.03693-.01849.05438-.02954l.0332-.018-.0014-.00232.01367-.01a9.64377,9.64377,0,0,0,.90784-.66364c.05365-.04395.10535-.08936.158-.13434a9.684,9.684,0,0,0,.74292-.703C257.91357,16.29994,257.93633,16.27986,257.9569,16.2577ZM100.75243,47.919l97.9325-18.53235-79.97,47.455Z" fill="#fff"/>
    <g>
      <rect x="68.35534" y="50.31611" width="70" height="70"/>
      <g>
        <rect x="74.39334" y="107.19071" width="26.2498" height="4.375" fill="#fff"/>
        <g>
          <path d="M74.09824,68.74761l2.0371-1.9233a2.31,2.31,0,0,0,1.7929,1.0594,1.33,1.33,0,0,0,1.2878-1.5976v-7.22h3.1456v7.2366a4.23858,4.23858,0,0,1-1.1246,3.2108,4.29889,4.29889,0,0,1-3.1293,1.1572A4.6592,4.6592,0,0,1,74.09824,68.74761Z" fill="#fff"/>
          <path d="M83.09474,59.06611h9.1761v2.673H86.22414v1.744h5.4762v2.4937h-5.4762v1.8093h6.1282v2.6893H83.09474Z" fill="#fff"/>
          <path d="M96.40434,61.83691h-3.4064v-2.7708h9.9911v2.7708h-3.4227v8.6383h-3.162Z" fill="#fff"/>
          <path d="M74.39164,73.14181h5.8511a4.27279,4.27279,0,0,1,3.1126,1.0106,2.56751,2.56751,0,0,1,.7335,1.858v.0326a2.6407,2.6407,0,0,1-1.76,2.5425,2.76861,2.76861,0,0,1,2.2655,2.7871v.0326c0,1.9558-1.5973,3.1456-4.3191,3.1456h-5.8836Zm6.5846,3.5206c0-.6357-.5052-.9779-1.4343-.9779h-2.07v2.0047h1.9884c.9616,0,1.5158-.326,1.5158-.9942v-.0326Zm-1.092,3.2437h-2.4123v2.1025h2.4448c.9779,0,1.5158-.3749,1.5158-1.0431v-.0329C81.43264,80.31331,80.94364,79.90611,79.88424,79.90611Z" fill="#fff"/>
          <path d="M85.06694,73.14181h5.3949a5.0512,5.0512,0,0,1,3.7161,1.2224,3.56229,3.56229,0,0,1,1.01,2.6567v.0326A3.61461,3.61461,0,0,1,92.841,80.574l2.7218,3.9769h-3.6342l-2.2981-3.4553h-1.4017v3.4553h-3.1619Zm5.2644,5.4764a1.433,1.433,0,0,0,1.6951-1.3528v-.0326c0-.9128-.6682-1.3691-1.7114-1.3691h-2.0862v2.7545Z" fill="#fff"/>
          <path d="M98.88774,73.06041h3.0476l4.8571,11.4905h-3.39l-.815-2.0536h-4.4168l-.8153,2.0536H94.047Zm2.7707,6.9758-1.2712-3.2271-1.2876,3.227h2.5589Z" fill="#fff"/>
          <path d="M107.167,73.14181h3.1619v11.4091H107.167Z" fill="#fff"/>
          <path d="M111.11114,73.14181h2.95l4.694,6.0306v-6.0306h3.12939v11.4091H119.13l-4.89-6.2587v6.2587h-3.1293V73.14181Z" fill="#fff"/>
          <path d="M122.08274,82.85611l1.76-2.1025a5.91063,5.91063,0,0,0,3.7,1.3691c.8638,0,1.32-.2934,1.32-.7824v-.0328c0-.489-.37489-.7335-1.9395-1.1084-2.4285-.5541-4.3029-1.2387-4.3029-3.5694v-.03251c0-2.1188,1.6788-3.6509,4.417-3.6509a7.18071,7.18071,0,0,1,4.694,1.5158l-1.5809,2.2329a5.60066,5.60066,0,0,0-3.1946-1.1246c-.766,0-1.1409.31-1.1409.7334v.0323c0,.5216.3912.75,1.9884,1.1083,2.6077.57,4.2377,1.418,4.2377,3.5531v.0326c0,2.3307-1.8418,3.7161-4.61259,3.7161A7.99919,7.99919,0,0,1,122.08274,82.85611Z" fill="#fff"/>
        </g>
      </g>
    </g>
  </g>
</svg>
