<svg id="Layer_1" data-name="Layer 1" xmlns="http://www.w3.org/2000/svg" viewBox="0 0 120.21259 130.10278">
  <title>logo-bw-transparent-for_dark_background_only</title>
  <g>
    <path d="M120.21249,68.6a4.9968,4.9968,0,0,0-1.4-3.5L55.20349,2.68736a7.86372,7.86372,0,0,0-3.36731-2.261c-.03467-.012-.06812-.02612-.103-.03766-.19336-.06323-.3913-.11511-.591-.16327-.06689-.0163-.13177-.0368-.1994-.05133-.18744-.04-.37909-.06738-.57117-.09363-.0788-.0108-.15527-.0274-.23492-.03589A7.839,7.839,0,0,0,49.31249,0a7.73961,7.73961,0,0,0-1.21088.10413c-.0235.00391-.04694.00671-.07037.0108a7.62573,7.62573,0,0,0-3.092,1.24969c-.07343.04773-.155.08575-.22668.13538L4.91249,28.3c-.08221.08221-.15106.10632-.17773.16437L4.68467,28.5H4.61249A11.11647,11.11647,0,0,0,.17127,39.45685l.00854.04449c.05176.28589.11011.56958.18372.84973.03052.119.06964.235.104.35284.054.181.10278.3634.16571.5412A11.15109,11.15109,0,0,0,5.31249,47.1a8.8203,8.8203,0,0,0,2,.9c.4.2,45.4,18.8,45.4,18.8a4.291,4.291,0,0,0,4.4-7.3c-.06525,0-16.839-13.21332-28.69928-22.52606l21.105-19.03113,57.91815,49.58282L28.61249,110.7a9.82332,9.82332,0,0,0-4.7,4.1,10.06619,10.06619,0,0,0,3.44961,13.81148q.07481.04491.15039.08852a10.28687,10.28687,0,0,0,10.7-.2c.2-.2.5-.3.7-.5l78-54.8a18.32022,18.32022,0,0,0,1.58611-1.2663A4.74576,4.74576,0,0,0,120.21249,68.6Z" fill="#fff"/>
    <g id="_Group_" data-name=" Group ">
      <rect id="_Path_" data-name=" Path " x="34.61249" y="37.4" width="51" height="51"/>
      <rect id="_Path_2" data-name=" Path 2" x="39.0125" y="78.8" width="19.1" height="3.2" fill="#fff"/>
      <g id="_Group_2" data-name=" Group 2">
        <path id="_Path_3" data-name=" Path 3" d="M38.81249,50.8l1.5-1.4a1.70272,1.70272,0,0,0,1.3.8q.9,0,.9-1.2V43.7h2.3V49a2.79543,2.79543,0,0,1-3.1,3.1A3.026,3.026,0,0,1,38.81249,50.8Z" fill="#fff"/>
        <path id="_Path_4" data-name=" Path 4" d="M45.31249,43.8h6.7v1.9h-4.4V47h4v1.8h-4v1.3h4.5v2h-6.7Z" fill="#fff"/>
        <path id="_Path_5" data-name=" Path 5" d="M55.01249,45.8h-2.5v-2h7.3v2h-2.5v6.3h-2.3Z" fill="#fff"/>
        <path id="_Compound_Path_" data-name=" Compound Path " d="M39.0125,54h4.3a3.70232,3.70232,0,0,1,2.3.7,1.97823,1.97823,0,0,1,.5,1.4h0a1.95538,1.95538,0,0,1-1.3,1.9,1.94762,1.94762,0,0,1,1.6,2h0c0,1.4-1.2,2.3-3.1,2.3h-4.3Zm4.8,2.6c0-.5-.4-.7-1-.7h-1.5v1.5h1.4C43.4125,57.3,43.81249,57.1,43.81249,56.6Zm-.8,2.4h-1.8v1.5h1.8c.7,0,1.1-.3,1.1-.8h0C44.11249,59.2,43.7125,59,43.0125,59Z" fill="#fff"/>
        <path id="_Compound_Path_2" data-name=" Compound Path 2" d="M46.81249,54h3.9a3.51462,3.51462,0,0,1,2.7.9,2.48948,2.48948,0,0,1,.7,1.9h0a2.76052,2.76052,0,0,1-1.7,2.6l2,2.9h-2.6l-1.7-2.5h-1v2.5h-2.3Zm3.8,4c.8,0,1.2-.4,1.2-1h0c0-.7-.5-1-1.2-1h-1.5v2Z" fill="#fff"/>
        <path id="_Compound_Path_3" data-name=" Compound Path 3" d="M56.81249,54h2.2l3.5,8.4h-2.5l-.6-1.5h-3.2l-.6,1.5h-2.4Zm2,5-.9-2.3-.9,2.3Z" fill="#fff"/>
        <path id="_Path_6" data-name=" Path 6" d="M62.81249,54h2.3v8.3h-2.3Z" fill="#fff"/>
        <path id="_Path_7" data-name=" Path 7" d="M65.7125,54h2.1l3.4,4.4V54h2.3v8.3h-2l-3.5-4.5v4.6h-2.3Z" fill="#fff"/>
        <path id="_Path_8" data-name=" Path 8" d="M73.7125,61.1l1.3-1.5a3.94222,3.94222,0,0,0,2.7,1c.6,0,1-.2,1-.6h0c0-.4-.3-.5-1.4-.8-1.8-.4-3.1-.9-3.1-2.6h0c0-1.5,1.2-2.7,3.2-2.7a5.33073,5.33073,0,0,1,3.4,1.1l-1.2,1.6a4.55349,4.55349,0,0,0-2.3-.8c-.6,0-.8.2-.8.5h0c0,.4.3.5,1.4.8,1.9.4,3.1,1,3.1,2.6h0c0,1.7-1.3,2.7-3.4,2.7A5.29335,5.29335,0,0,1,73.7125,61.1Z" fill="#fff"/>
      </g>
    </g>
  </g>
</svg>
